<svg width="48" height="48" viewBox="0 0 48 48" fill="none" xmlns="http://www.w3.org/2000/svg">
<g clip-path="url(#clip0)">
<path d="M32.9057 17.9995C32.9057 27.3361 25.0901 34.8119 15.7498 34.3886C13.5617 34.292 11.4599 33.7708 9.48647 32.8351L1.67912 34.3782C1.24891 34.467 0.761326 34.3422 0.410708 33.992C0.0788392 33.6601 -0.0645955 33.1839 0.0272777 32.7236L1.56944 25.0109C0.527893 22.8144 9.07233e-05 20.4576 9.07233e-05 17.9995C9.07233e-05 8.94464 7.41023 1.59357 16.4998 1.59357C25.5474 1.59357 32.9057 8.95252 32.9057 17.9995Z" fill="#FFE278"/>
<path d="M32.9057 17.9995C32.9057 27.3361 25.0901 34.8119 15.7498 34.3886V1.61045C25.0807 1.18746 32.9057 8.653 32.9057 17.9995Z" fill="#FFB454"/>
<path d="M47.972 44.7234C48.1708 45.7197 47.2805 46.5762 46.3201 46.3781L38.5128 44.835C36.3153 45.8774 33.9585 46.4052 31.4995 46.4052C22.4528 46.4052 15.0935 39.046 15.0935 29.9993C15.0935 20.9516 22.4525 13.5934 31.4995 13.5934C40.5977 13.5934 47.9991 20.9526 47.9991 29.9993C47.9991 32.4574 47.4713 34.8142 46.4298 37.0107L47.972 44.7234Z" fill="#DD5958"/>
<path d="M47.972 44.7234C48.1708 45.7197 47.2805 46.5762 46.3201 46.3781L38.5128 44.835C36.3153 45.8774 33.9585 46.4052 31.4995 46.4052V13.5934C40.5977 13.5934 47.9992 20.9526 47.9992 29.9993C47.9992 32.4574 47.4714 34.8142 46.4298 37.0107L47.972 44.7234Z" fill="#D8225B"/>
</g>
<defs>
<clipPath id="clip0">
<rect width="48" height="48" fill="white"/>
</clipPath>
</defs>
</svg>
