<svg width="48" height="48" viewBox="0 0 48 48" fill="none" xmlns="http://www.w3.org/2000/svg">
<g clip-path="url(#clip0)">
<path d="M68.5882 29.2491C65.3248 29.2491 63.5243 27.1719 63.9744 24.1965C64.4808 21.1649 66.9565 19.1439 70.1637 19.1439C71.8517 19.1439 73.3708 19.9298 74.2711 21.1088L77.422 18.5263C75.734 16.6175 73.3146 15.6632 70.7263 15.6632C65.4373 15.6632 60.8235 19.2 60.0358 24.1965C59.2481 29.2491 62.624 32.7298 67.9693 32.7298C70.6701 32.7298 73.3708 31.607 75.734 29.7544L73.4834 27.1719C71.8517 28.6316 70.1637 29.2491 68.5882 29.2491ZM89.7442 15.8316C89.7442 15.8316 89.0691 15.7193 89.0128 15.7193C88.2813 15.607 87.4936 15.6632 86.7621 15.7193C86.087 15.7754 85.4118 15.8877 84.7366 16.1123C84.1739 16.2807 83.555 16.5053 83.0486 16.8421L83.1611 16.0561H79.335L76.7468 32.3368H80.5729L82.0921 22.8491C82.1483 22.2877 82.3734 21.7825 82.6547 21.3333C82.9361 20.8842 83.3299 20.4912 83.7801 20.2105C84.2302 19.8737 84.6803 19.6491 85.1867 19.4807C85.6931 19.3123 86.1995 19.2 86.7621 19.1439C87.4936 19.0877 88.2813 19.1439 89.0128 19.3123H89.0691C89.1816 19.3123 89.7442 15.8316 89.7442 15.8316ZM103.136 17.0667C102.066 16.1684 100.435 15.6632 98.5217 15.6632C93.7391 15.6632 89.4066 19.0877 88.5627 24.1404C87.7749 29.193 91.0946 32.6175 95.7084 32.6175C97.7903 32.6175 99.5345 32.3368 100.997 31.3263L100.885 32.2246H104.373L106.905 16.0561H103.304L103.136 17.0667ZM102.348 24.1404C101.841 27.2281 99.5345 29.3614 96.5524 29.3614C93.5141 29.3614 91.7698 27.1158 92.2762 24.0842C92.7826 21.0526 95.202 18.9193 98.1841 18.9193C101.166 18.9754 102.798 21.0526 102.348 24.1404ZM124.573 16.0561L125.304 11.4526L120.916 14.5965L120.691 16.1123H115.739L116.246 13.0246C116.527 11.5649 118.102 11.6211 118.102 11.6211H119.959L120.522 8.25263H118.384H117.877C112.645 8.25263 112.476 12.2947 112.476 12.2947L112.138 14.2035L111.857 16.1123H111.519L107.243 19.4807H111.294L108.706 35.9298H112.645L115.233 19.4246H120.184L118.159 32.3368H122.041L124.066 19.4246H128.905L129.468 16.0561H124.573ZM134.982 24.1965C135.77 19.2 140.327 15.6632 145.673 15.6632C148.261 15.6632 150.68 16.6737 152.368 18.5263L149.217 21.1088C148.317 19.9298 146.798 19.1439 145.11 19.1439C141.903 19.1439 139.427 21.2211 138.921 24.1965C138.471 27.1719 140.271 29.2491 143.535 29.2491C145.11 29.2491 146.798 28.6316 148.43 27.1719L150.68 29.7544C148.317 31.6632 145.616 32.7298 142.916 32.7298C137.57 32.7298 134.194 29.2491 134.982 24.1965ZM180.558 22.4561L179.038 32.3368H175.212L176.731 22.7368C177.125 20.4912 175.887 19.1439 173.693 19.1439C171.386 19.1439 169.079 20.5474 168.742 22.8491L167.223 32.3368H163.396L164.916 22.7368C165.253 20.5474 163.959 19.2 161.877 19.1439C159.739 19.2561 157.263 20.6035 156.926 22.8491L155.407 32.3368H151.581L154.169 16.0561H157.995L157.882 16.8421C159.176 16.0561 160.639 15.7193 162.496 15.6632H162.834C165.197 15.6632 167.11 16.6175 168.123 18.2456C169.698 16.6175 172.118 15.6632 174.537 15.6632C178.701 15.6632 181.233 18.414 180.558 22.4561ZM180.389 30.3719L182.752 27.4526C184.046 28.4632 186.522 29.2491 188.604 29.2491C190.517 29.2491 192.43 28.8561 192.655 27.5649C192.824 26.5544 190.967 26.2175 188.885 25.8807C184.552 25.1509 182.358 24.2526 182.808 20.9965C183.483 16.8982 187.703 15.7193 191.192 15.7193C193.668 15.7193 196.256 16.5614 198 17.7404L195.637 20.6596C194.286 19.8175 192.542 19.2 190.573 19.2C188.266 19.2 186.916 19.8737 186.747 20.9404C186.634 21.6702 187.253 21.9509 189.954 22.4C193.893 23.0737 197.156 23.6912 196.537 27.4526C196.031 30.8772 192.542 32.786 187.985 32.786C185.453 32.7298 182.189 31.8316 180.389 30.3719ZM43.0435 0H5.06394C2.25064 0 0 2.24561 0 5.05263V42.9474C0 45.7544 2.25064 48 5.06394 48H43.0435C45.8005 48 48.1074 45.7544 48.1074 42.9474V5.05263C48.1074 2.24561 45.8568 0 43.0435 0ZM23.9693 29.2491C25.5448 29.2491 27.2327 28.6316 28.8645 27.1719L31.1151 29.7544C28.7519 31.6632 26.0512 32.7298 23.3504 32.7298C18.0051 32.7298 14.6292 29.193 15.4169 24.1965C16.2046 19.2 20.7621 15.6632 26.1074 15.6632C28.6957 15.6632 31.1151 16.6737 32.8031 18.5263L29.6522 21.1088C28.7519 19.9298 27.2327 19.1439 25.5448 19.1439C22.3376 19.1439 19.8619 21.2211 19.3555 24.1965C18.9054 27.1719 20.7059 29.2491 23.9693 29.2491Z" fill="#E5422B"/>
</g>
<defs>
<clipPath id="clip0">
<rect width="48" height="48" fill="white"/>
</clipPath>
</defs>
</svg>
