<svg id="Layer_1" enable-background="new 0 0 512 512" height="512" viewBox="0 0 512 512" width="512" xmlns="http://www.w3.org/2000/svg"><g><g><g id="XMLID_663_"><g id="XMLID_664_"><g id="XMLID_665_"><g id="XMLID_666_"><g id="XMLID_667_"><g id="XMLID_668_"><g id="XMLID_669_"><g id="XMLID_670_"><g id="XMLID_671_"><g id="XMLID_672_"><g id="XMLID_673_"><g id="XMLID_674_"><g id="XMLID_675_"><g id="XMLID_676_"><circle id="XMLID_677_" cx="256" cy="256" fill="#645666" r="256"/></g></g></g></g></g></g></g></g></g></g></g></g></g></g></g><path d="m512 256c0-23.881-3.281-46.994-9.398-68.925l-73.689-73.689-62.726 19.053-19.51-19.378-49.636 99.15 109.245 109.254-19.914 26.414-103.664-103.359-90.684 2.762-40.131-40.494-112.55 140.093 158.473 158.473c18.693 4.345 38.169 6.646 58.184 6.646 141.385 0 256-114.615 256-256z" fill="#4f4251"/><g><path d="m417.091 305.618-99.131 27.197-57.913-47.978h2.377c13.951 0 25.261-11.31 25.261-25.261 0-13.951-11.31-25.261-25.261-25.261h-63.362-20.005-135.477v89.408h87.09c37.829-20.621 158.075 68.403 182.435 58.833l127.565-28.217c11.078-4.352 18.139-13.601 18.139-23.759 0-17.926-21.177-30.597-41.718-24.962z" fill="#ffdaae"/><path d="m458.812 330.582c0 10.16-7.066 19.408-18.147 23.751l-80.695 24.332c-43.249 13.041-89.891 8.573-129.865-12.464-38.654-20.342-84.207-42.474-99.436-42.474h-87.093v-38.89h216.464l38.817 32.157c11.971 9.917 28.026 13.374 43.017 9.261l75.219-20.634c20.542-5.634 41.719 7.036 41.719 24.961z" fill="#ffc48a"/><path d="m39.343 206.788h112.55v140.093h-112.55z" fill="#27e0c9"/><path d="m39.339 284.838h112.559v62.048h-112.559z" fill="#0ac1a7"/><g><path d="m411.132 100.897c-40.052-14.069-56.573 24.148-56.573 24.148s-16.522-38.217-56.573-24.148c-41.414 14.548-56.573 101.605 56.573 145.91 113.146-44.305 97.986-131.361 56.573-145.91z" fill="#ff76ab"/></g><g><path d="m437.706 174.42c-2.158 6.127-5.203 12.327-9.241 18.481-13.029 19.867-36.431 39.231-73.907 53.906v-121.76s16.522-38.219 56.571-24.15c23.449 8.237 38.483 39.72 26.577 73.523z" fill="#fc3e81"/></g></g></g></svg>