<svg x="0px" y="0px"
	 viewBox="0 0 512 512" xml:space="preserve">
<g>
	<g>
		<g>
			<path d="M107.69,323.157c5.137,8.066,15.128,11.249,23.821,8.008l314.921-114.789c4.984-1.817,9.044-5.542,11.286-10.357
				c2.242-4.814,2.482-10.323,0.668-15.315c-19.092-52.532-77.958-78.681-129.748-57.273c-1.067,0.441,0.413-0.233-30.177,14.753
				l-59.288-46.875c-5.442-4.303-12.721-5.475-19.233-3.101l-74.544,27.171c-6.404,2.334-11.181,7.775-12.674,14.434
				c-1.493,6.66,0.503,13.622,5.296,18.474l44.001,44.54l-79.998,36.931L89.27,219.736c-5.939-9.327-18.304-12.066-27.617-6.117
				c-9.313,5.948-12.047,18.33-6.108,27.657C63.459,253.703,100.134,311.292,107.69,323.157z M224.678,227.244
				c5.923-2.734,10.143-8.189,11.307-14.616c1.164-6.426-0.875-13.018-5.461-17.661l-42.12-42.635l34.737-12.662l60.416,47.767
				c6.04,4.774,14.277,5.656,21.189,2.267l39.702-19.47c24.585-9.878,50.99-1.618,66.222,16.547L132.788,288.07
				c-0.982-1.542-8.315-13.057-9.058-14.223L224.678,227.244z"/>
		</g>
	</g>
</g>

</svg>