<svg width="48" height="48" viewBox="0 0 48 48" fill="none" xmlns="http://www.w3.org/2000/svg">
<g clip-path="url(#clip0)">
<path d="M10.8652 0L22.4547 40.7565H6.51912V4.34608C6.51912 1.94608 8.4652 0 10.8652 0Z" fill="#E8412E"/>
<path d="M41.4809 0.724346V36.4105L29.8914 37.8592L38.5835 0H40.7565C41.1566 0 41.4809 0.324314 41.4809 0.724346Z" fill="#FF5A47"/>
<path d="M10.8652 0H38.5835V37.8592H10.8652V0Z" fill="#FE8047"/>
<path d="M41.4809 45.1026V47.2757C41.4809 47.6757 41.1566 48 40.7566 48H38.5835L35.6861 42.2053L41.4809 45.1026Z" fill="#E8412E"/>
<path d="M41.4809 36.4105V39.3078L35.6861 42.2052L38.5835 36.4105H41.4809Z" fill="#E8412E"/>
<path d="M10.8652 36.4105C8.4652 36.4105 6.51912 38.3565 6.51912 40.7565V43.6539C6.51912 46.0539 8.4652 48 10.8652 48H38.5835V36.4105H10.8652Z" fill="#FF5A47"/>
<path d="M38.5835 39.3079H41.4809C40.6803 40.1085 40.2794 41.1564 40.2794 42.2052L34.4847 43.6539L38.5835 39.3079Z" fill="#FFF7BA"/>
<path d="M41.4809 45.1027H38.5835L34.4847 42.2053H40.2794C40.2794 43.2541 40.6803 44.302 41.4809 45.1027Z" fill="#FFF04A"/>
<path d="M38.5835 45.1026H10.8652C10.0655 45.1026 9.4165 44.4536 9.4165 43.6539V42.2052L10.8652 40.7565H35.9334L37.3821 42.2052C37.3821 43.2541 37.7829 44.302 38.5835 45.1026Z" fill="#FFF7BA"/>
<path d="M10.8652 39.3079H38.5835C37.7829 40.1085 37.3821 41.1564 37.3821 42.2053H9.4165V40.7566C9.4165 39.9569 10.0655 39.3079 10.8652 39.3079Z" fill="white"/>
<path d="M32.7887 5.7948L24.0966 10.8652L32.7887 15.9357H35.6861V5.7948H32.7887Z" fill="#FCD72B"/>
<path d="M16.66 15.9357V5.7948H32.7887V8.69219L31.3401 10.8652L32.7887 13.0383V15.9357H16.66Z" fill="#FFF04A"/>
<path d="M19.5573 8.69214H32.7887V13.0382H19.5573V8.69214Z" fill="#FFF7BA"/>
</g>
<defs>
<clipPath id="clip0">
<rect width="48" height="48" fill="white"/>
</clipPath>
</defs>
</svg>
