<svg width="48" height="48" viewBox="0 0 48 48" fill="none" xmlns="http://www.w3.org/2000/svg">
<g clip-path="url(#clip0)">
<path d="M41.0398 45.0938L40.7405 44.0872C40.1527 42.1042 37.4391 41.423 35.2583 40.875C32.8056 40.2638 30.2759 39.6322 29.7431 37.619L29.5014 36.7085L28.5649 36.5862C27.2272 36.4132 25.9309 35.9037 24.8103 35.1141L24 34.5427L23.1897 35.1154C19.9052 37.4265 15.1721 36.9355 12.4148 34.1362L11.904 33.6172L11.1844 33.7366C6.21478 34.5493 1.5 30.6257 1.5 25.4062C1.5 23.1651 2.39541 21.0488 4.01859 19.4448L4.53769 18.9339L4.41956 18.2143C3.80297 14.4554 5.90175 10.5946 9.726 9.13134L10.3165 8.90747L10.5417 8.31834C11.7942 5.03072 14.8703 2.90625 18.375 2.90625C20.0971 2.90625 21.7615 3.43913 23.187 4.44844L24 5.02116L24.813 4.44713C26.2385 3.43913 27.9029 2.90625 29.625 2.90625C33.1297 2.90625 36.2058 5.03072 37.4583 8.31975L37.6835 8.90756L38.274 9.13144C42.1199 10.6029 44.1976 14.4833 43.5804 18.2103L43.4623 18.934L43.9787 19.4449C45.6046 21.0488 46.5 23.1651 46.5 25.4062C46.5 28.9246 44.278 32.1079 40.9711 33.3288L38.6585 34.1816L40.5673 35.7376C42.5504 37.3511 43.6875 39.7365 43.6875 42.2812V45.0938H41.0398Z" fill="#FFB3B3"/>
<path d="M24.8103 35.1141C25.9309 35.9037 27.2272 36.4132 28.5649 36.5862L29.5014 36.7085L29.7431 37.619C30.276 39.6323 32.8056 40.2639 35.2583 40.875C37.4391 41.423 40.1527 42.1041 40.7405 44.0872L41.0398 45.0938H43.6875V42.2812C43.6875 39.7365 42.5504 37.3511 40.5674 35.7375L38.6586 34.1815L40.9712 33.3287C44.278 32.1079 46.5 28.9246 46.5 25.4062C46.5 23.1651 45.6046 21.0488 43.9786 19.4448L43.4622 18.9339L43.5803 18.2102C44.1975 14.4833 42.1198 10.6028 38.2739 9.13134L37.6834 8.90747L37.4582 8.31966C36.2058 5.03072 33.1297 2.90625 29.625 2.90625C27.9029 2.90625 26.2385 3.43913 24.813 4.44713L24 5.02116V34.5427L24.8103 35.1141Z" fill="#FF8080"/>
<path d="M32.8495 9.79884L29.5564 11.7022C29.1307 11.4083 28.683 11.1488 28.2187 10.9264V7.125H19.7812V10.9263C19.3171 11.1487 18.8693 11.4083 18.4436 11.7022L15.1505 9.79875L10.9317 17.1074L14.1947 18.9916C14.1699 19.2512 14.1562 19.5148 14.1562 19.7812C14.1562 20.0477 14.1699 20.3113 14.1947 20.5709L10.9317 22.4551L15.1505 29.7638L18.4436 27.8603C18.8693 28.1543 19.317 28.4137 19.7812 28.6349V32.4375H28.2187V28.6362C28.6829 28.4137 29.1307 28.1542 29.5564 27.8603L32.8495 29.7638L37.0683 22.4551L33.8053 20.5709C33.8301 20.3113 33.8437 20.0477 33.8437 19.7812C33.8437 19.5148 33.8301 19.2512 33.8053 18.9916L37.0683 17.1074L32.8495 9.79884Z" fill="#474F54"/>
<path d="M48 25.4062C48 22.7873 46.8433 20.2935 44.9674 18.4436C45.7028 14.0069 43.1978 9.50738 38.7739 7.81847C37.3209 4.00903 33.7312 1.5 29.625 1.5C27.6145 1.5 25.6535 2.13169 24 3.29897C22.3465 2.13169 20.3855 1.5 18.375 1.5C14.2688 1.5 10.6791 4.00903 9.22613 7.81847C4.80816 9.50513 2.29612 14.001 3.03262 18.4436C1.15669 20.2935 0 22.7873 0 25.4062C0 31.4686 5.57794 36.0908 11.4124 35.1236C14.6808 38.4401 20.1905 38.951 24 36.2634C25.3102 37.1876 26.8125 37.7768 28.3836 37.9814C29.1307 40.7939 32.3002 41.5863 34.9094 42.2386C38.0076 43.0146 39.4688 43.5488 39.4688 45.0938V46.5H45.0938V42.2812C45.0938 39.205 43.6738 36.453 41.4573 34.6471C45.2173 33.2601 48 29.6415 48 25.4062ZM38.0625 32.4375H35.25V35.25C39.1282 35.25 42.2812 38.4044 42.2812 42.2812V43.6875H42.0945C41.309 40.9395 38.1751 40.1568 35.5906 39.5113C32.4924 38.7354 31.0312 38.2012 31.0312 36.6562V35.25H29.625C27.9139 35.25 26.2494 34.6004 24.9421 33.4222L24 32.5748L23.0579 33.4222C20.1712 36.0217 15.4718 35.6647 12.9972 32.6874L12.4369 32.0132L11.5854 32.2192C6.97284 33.3262 2.90625 29.7902 2.90625 25.4062C2.90625 23.3422 3.84009 21.3811 5.46881 20.0285L5.47622 20.0223C6.47662 19.1919 7.58372 18.6698 8.76478 18.4725L8.29791 15.6984C7.42537 15.8445 6.57084 16.1295 5.75475 16.5261C5.93841 13.6152 7.88044 11.1311 10.7369 10.2727L11.462 10.0543L11.6789 9.33056C12.5825 6.3285 15.2714 4.3125 18.375 4.3125C20.0861 4.3125 21.7506 4.96209 23.0579 6.14034L24 6.98766L24.9421 6.14034C26.2494 4.96209 27.9139 4.3125 29.625 4.3125C32.7286 4.3125 35.4175 6.3285 36.3212 9.33047L36.5381 10.0542L37.2632 10.2726C40.1197 11.131 42.0616 13.6151 42.2453 16.526C41.4292 16.1294 40.5747 15.8445 39.7022 15.6983L39.2353 18.4724C40.4164 18.6697 41.5234 19.1918 42.5239 20.0222L42.5313 20.0284C44.1599 21.3811 45.0938 23.3422 45.0938 25.4062C45.0938 29.2831 41.9407 32.4375 38.0625 32.4375Z" fill="#FFCCCC"/>
<path d="M24.9421 6.14034C26.2494 4.96209 27.9139 4.3125 29.625 4.3125C32.7286 4.3125 35.4175 6.3285 36.3212 9.33047L36.5381 10.0542L37.2632 10.2726C40.1197 11.131 42.0616 13.6151 42.2453 16.526C41.4293 16.1294 40.5747 15.8445 39.7022 15.6983L39.2353 18.4724C40.4164 18.6697 41.5234 19.1918 42.5239 20.0222L42.5313 20.0284C44.1599 21.3811 45.0938 23.3422 45.0938 25.4062C45.0938 29.2831 41.9407 32.4375 38.0625 32.4375H35.25V35.25C39.1282 35.25 42.2812 38.4044 42.2812 42.2812V43.6875H42.0945C41.309 40.9395 38.1751 40.1568 35.5906 39.5113C32.4924 38.7354 31.0312 38.2012 31.0312 36.6562V35.25H29.625C27.9139 35.25 26.2494 34.6004 24.9421 33.4222L24 32.5748V36.2635C25.3102 37.1877 26.8125 37.7769 28.3836 37.9815C29.1307 40.794 32.3002 41.5864 34.9094 42.2387C38.0076 43.0146 39.4688 43.5488 39.4688 45.0938V46.5H45.0938V42.2812C45.0938 39.205 43.6738 36.453 41.4573 34.6471C45.2173 33.2601 48 29.6415 48 25.4062C48 22.7873 46.8433 20.2935 44.9674 18.4436C45.7029 14.0069 43.1978 9.50728 38.7739 7.81847C37.3209 4.00903 33.7312 1.5 29.625 1.5C27.6145 1.5 25.6535 2.13169 24 3.29897V6.98766L24.9421 6.14034Z" fill="#FFB3B3"/>
<path d="M24 7.125V32.4375H28.2187V28.6362C28.6829 28.4137 29.1307 28.1542 29.5564 27.8603L32.8495 29.7638L37.0683 22.4551L33.8053 20.5709C33.8301 20.3113 33.8437 20.0477 33.8437 19.7812C33.8437 19.5148 33.8301 19.2512 33.8053 18.9916L37.0683 17.1074L32.8495 9.79875L29.5564 11.7022C29.1307 11.4082 28.683 11.1487 28.2187 10.9263V7.125H24Z" fill="#32393F"/>
<path d="M24 15.5625C21.6737 15.5625 19.7812 17.4549 19.7812 19.7812C19.7812 22.1076 21.6737 24 24 24C26.3263 24 28.2188 22.1076 28.2188 19.7812C28.2188 17.4549 26.3263 15.5625 24 15.5625Z" fill="#FFB3B3"/>
<path d="M28.2188 19.7812C28.2188 17.4549 26.3263 15.5625 24 15.5625V24C26.3263 24 28.2188 22.1076 28.2188 19.7812Z" fill="#FF8080"/>
</g>
<defs>
<clipPath id="clip0">
<rect width="48" height="48" fill="white"/>
</clipPath>
</defs>
</svg>
