<svg width="48" height="48" viewBox="0 0 48 48" fill="none" xmlns="http://www.w3.org/2000/svg">
<path d="M48 24C48 25.4517 47.8707 26.8732 47.6239 28.2533C45.6167 39.4795 35.8031 48 24 48C15.1073 48 7.344 43.1637 3.19838 35.9775C2.18644 34.225 1.39106 32.3334 0.846375 30.338C0.293906 28.3191 0 26.1933 0 24C0 10.7452 10.7452 0 24 0C34.9401 0 44.1698 7.31953 47.0605 17.3289C47.6719 19.4468 48 21.6852 48 24Z" fill="#8F9ED1"/>
<path d="M12.2037 16.7098H3.36481L0.846313 30.3379C1.391 32.3334 2.18638 34.225 3.19831 35.9775H4.01825L4.99391 30.6994H9.85072C15.7645 30.6994 17.3544 25.3901 17.7355 22.7823C18.1175 20.1756 16.2102 16.7098 12.2037 16.7098ZM13.486 23.2221C13.2695 24.7004 12.1772 27.7106 8.82509 27.7106H5.54638L7.01188 19.7788H10.3494C13.6026 19.7788 13.7024 21.7439 13.486 23.2221Z" fill="#F2F2F2"/>
<path d="M47.0605 17.3288C46.3092 16.9409 45.4138 16.7097 44.3794 16.7097H35.5405L31.9797 35.9774H36.1939L37.1695 30.6994H42.0264C44.6566 30.6994 46.4316 29.6493 47.6237 28.2533C47.8707 26.8731 48 25.4516 48 23.9999C48 21.6851 47.6719 19.4467 47.0605 17.3288ZM45.6617 23.2221C45.4452 24.7003 44.353 27.7105 40.9998 27.7105H37.7221L39.1876 19.7788H42.5251C45.7783 19.7788 45.8782 21.7439 45.6617 23.2221Z" fill="#F2F2F2"/>
<path d="M28.991 16.7736C27.2758 16.7736 24.9875 16.7736 23.8725 16.7736L24.8333 11.5751H20.6365L17.0756 30.8422H21.2724L23.3201 19.7623C24.0767 19.7623 25.0817 19.7623 26.0023 19.7623C27.7827 19.7623 28.991 20.1438 28.7365 21.7971C28.4822 23.4504 27.0197 30.763 27.0197 30.763H31.2801C31.2801 30.763 32.9333 22.6238 33.1877 20.3345C33.4421 18.0453 31.3437 16.7736 28.991 16.7736Z" fill="#F2F2F2"/>
</svg>
