<svg width="48" height="48" viewBox="0 0 48 48" fill="none" xmlns="http://www.w3.org/2000/svg">
<path d="M16.9688 9.9375L4.3125 14.1562C8.19581 14.1562 11.3438 17.3042 11.3438 21.1875L15.5625 28.2188L22.5938 31.0312L26.8125 28.2188C28.9147 24.0167 29.625 18.4085 29.625 16.6642V9.9375H16.9688Z" fill="#873F2E"/>
<path d="M26.8125 28.2188C28.9147 24.0167 29.625 18.4085 29.625 16.6642V9.9375H18.375V28.2188L22.5938 31.0312L26.8125 28.2188Z" fill="#773326"/>
<path d="M28.2188 11.3438H25.4062C24.6296 11.3438 24 10.7141 24 9.9375L21.1875 8.20031L24 5.625C24 4.84837 24.6296 4.21875 25.4062 4.21875H28.2188C28.9954 4.21875 29.625 4.84837 29.625 5.625V9.9375C29.625 10.7141 28.9954 11.3438 28.2188 11.3438Z" fill="#873F2E"/>
<path d="M22.5938 11.3438H19.7812C19.0046 11.3438 18.375 10.7141 18.375 9.9375L15.5625 6.09375L18.375 4.21875C18.375 3.44212 19.0046 2.8125 19.7812 2.8125H22.5938C23.3704 2.8125 24 3.44212 24 4.21875V9.9375C24 10.7141 23.3704 11.3438 22.5938 11.3438Z" fill="#873F2E"/>
<path d="M16.9688 11.3438H12.75L9.9375 6.85547L12.75 2.8125C12.75 2.03587 13.3796 1.40625 14.1562 1.40625H16.9688C17.7454 1.40625 18.375 2.03587 18.375 2.8125V9.9375C18.375 10.7141 17.7454 11.3438 16.9688 11.3438Z" fill="#A34F3E"/>
<path d="M12.75 11.3438H7.125V1.40625C7.125 0.629625 7.75462 0 8.53125 0H11.3438C12.1204 0 12.75 0.629625 12.75 1.40625V11.3438Z" fill="#A34F3E"/>
<path d="M18.375 9.9375C18.375 9.14991 17.7563 8.53125 16.9688 8.53125H2.90625C2.11866 8.53125 1.5 9.14991 1.5 9.9375V13.228C1.5 20.3306 3.79744 25.071 7.125 28.2188L11.6249 31.0312L15.5625 28.95V21.1875C15.5625 17.29 12.4286 14.1562 8.53125 14.1562H14.1562C16.4907 14.1562 18.375 12.2718 18.375 9.9375Z" fill="#C86E59"/>
<path d="M18.375 28.2188H7.125V46.5938C7.125 47.3704 7.75462 48 8.53125 48H18.375H25.4062C26.1829 48 26.8125 47.3704 26.8125 46.5938V28.2188H18.375Z" fill="#7ED8F6"/>
<path d="M26.8125 46.5938V28.2188H18.375V48H25.4062C26.1829 48 26.8125 47.3704 26.8125 46.5938Z" fill="#6AA9FF"/>
<path d="M33.8438 21.1875L21.1875 25.4062C25.0708 25.4062 28.2188 28.5542 28.2188 32.4375L32.4375 39.4688L39.4688 42.2812L43.6875 39.4688C45.7897 35.2667 46.5 29.6585 46.5 27.9143V21.1875H33.8438Z" fill="#F89580"/>
<path d="M43.6875 39.4688C45.7897 35.2667 46.5 29.6585 46.5 27.9143V21.1875H35.25V39.4688L39.4688 42.2812L43.6875 39.4688Z" fill="#E87D6B"/>
<path d="M45.0938 22.5938H42.2812C41.5046 22.5938 40.875 21.9641 40.875 21.1875L38.0625 19.4503L40.875 16.9688C40.875 16.1921 41.5046 15.5625 42.2812 15.5625H45.0938C45.8704 15.5625 46.5 16.1921 46.5 16.9688V21.1875C46.5 21.9641 45.8704 22.5938 45.0938 22.5938Z" fill="#F89580"/>
<path d="M39.4688 22.5938H36.6562C35.8796 22.5938 35.25 21.9641 35.25 21.1875L32.4375 17.4375L35.25 15.5625C35.25 14.7859 35.8796 14.1562 36.6562 14.1562H39.4688C40.2454 14.1562 40.875 14.7859 40.875 15.5625V21.1875C40.875 21.9641 40.2454 22.5938 39.4688 22.5938Z" fill="#F89580"/>
<path d="M33.8438 22.5938H29.625L26.8125 18.1992L29.625 14.1562C29.625 13.3796 30.2546 12.75 31.0312 12.75H33.8438C34.6204 12.75 35.25 13.3796 35.25 14.1562V21.1875C35.25 21.9641 34.6204 22.5938 33.8438 22.5938Z" fill="#FFBFAB"/>
<path d="M29.625 22.5938H24V12.75C24 11.9734 24.6296 11.3438 25.4062 11.3438H28.2188C28.9954 11.3438 29.625 11.9734 29.625 12.75V22.5938Z" fill="#FFBFAB"/>
<path d="M18.375 24.4821V25.4063H18.406C18.3971 25.0979 18.375 24.7928 18.375 24.4821Z" fill="black"/>
<path d="M35.25 21.1875C35.25 20.3999 34.6313 19.7812 33.8438 19.7812H19.7812C18.9937 19.7812 18.375 20.3999 18.375 21.1875V24.478C18.375 31.5806 20.6724 36.321 24 39.4688L28.4999 42.2812L32.4375 40.2V32.4375C32.4375 28.54 29.3036 25.4062 25.4062 25.4062H31.0312C33.3657 25.4062 35.25 23.5218 35.25 21.1875Z" fill="#FFD5CC"/>
<path d="M35.25 39.4688H24V46.5938C24 47.3704 24.6296 48 25.4062 48H35.25H42.2812C43.0579 48 43.6875 47.3704 43.6875 46.5938V39.4688H35.25Z" fill="#6D4D8C"/>
<path d="M43.6875 46.5938V39.4688H35.25V48H42.2812C43.0579 48 43.6875 47.3704 43.6875 46.5938Z" fill="#4A4080"/>
</svg>
