<svg width="48" height="48" viewBox="0 0 48 48" fill="none" xmlns="http://www.w3.org/2000/svg">
<path d="M48 24C48 24.7416 47.9667 25.4743 47.9001 26.1982C47.8492 26.7713 47.7766 27.3375 47.6845 27.8969C45.8233 39.2983 35.9275 48 24 48C17.9245 48 12.3772 45.7431 8.14922 42.0205C6.58678 40.6462 5.20453 39.071 4.04278 37.3352C1.48894 33.5216 0 28.9342 0 24C0 10.7452 10.7452 0 24 0C37.2548 0 48 10.7452 48 24Z" fill="#F2F2F2"/>
<path d="M41.8844 26.7164C41.1565 26.9917 41.186 26.9965 40.8009 26.2952C40.3092 25.4018 40.0476 24.4624 40.025 23.4407C40.0064 22.5639 40.2464 21.749 40.5482 20.9496C40.7891 20.3138 40.4757 20.0895 39.9251 20.0317C39.5244 19.9905 39.1111 19.9944 38.7095 20.0356C37.6652 20.1424 37.5623 20.2325 37.2851 21.2464C37.1206 21.8479 36.9892 22.4543 36.716 23.0253C36.042 24.431 35.276 25.7848 34.4903 27.1288C34.3492 27.3708 34.2327 27.6313 34.0339 27.838C33.4647 26.9858 33.2502 26.0444 33.2022 25.0569C33.1542 24.0822 33.453 23.1761 33.7811 22.2798C33.8918 21.9781 33.7998 21.791 33.5391 21.6607C33.4235 21.6029 33.2943 21.549 33.1679 21.5392C32.4979 21.4863 31.8298 21.4941 31.1764 21.6772C30.8825 21.7585 30.6905 21.9232 30.6248 22.2533C30.4975 22.8988 30.2987 23.5257 30.0302 24.1292C29.2857 25.8004 28.5461 27.4745 27.8026 29.1467C27.1561 30.5994 26.5193 32.056 25.7533 33.451C25.6994 33.5499 25.6544 33.7214 25.5192 33.6871C25.382 33.6528 25.43 33.4843 25.4241 33.3687C25.3801 32.5459 25.6044 31.7612 25.7954 30.9756C26.0981 29.7324 26.4291 28.4952 26.7505 27.256C26.8426 26.9004 26.6878 26.6614 26.393 26.4909C25.9688 26.247 25.5466 26.2353 25.0872 26.5771C25.1499 26.0716 25.1773 25.6279 25.1557 25.1842C25.1068 24.1948 24.6483 23.5512 23.85 23.4023C23.2671 23.2935 22.7156 23.463 22.1945 23.7098C20.9797 24.2849 20.0031 25.1518 19.1822 26.2039C19.0862 26.3263 18.9892 26.439 18.8501 26.5144C17.3092 27.3539 15.7693 28.1934 14.2324 29.0408C14.0639 29.1348 13.9551 29.1083 13.8336 28.978C13.0597 28.1483 12.1615 27.4636 11.272 26.7691C10.0289 25.7974 8.74273 24.8766 7.67005 23.705C7.04314 23.0193 6.52001 22.2679 6.25845 21.3608C5.83133 19.8777 6.15073 18.4965 6.86192 17.1839C7.70342 15.6312 8.95142 14.4323 10.3277 13.3644C12.5132 11.6697 14.9102 10.3238 17.4365 9.21591C20.2656 7.97672 23.2005 7.17834 26.3263 7.29881C27.5645 7.34681 28.7664 7.56131 29.8695 8.16769C30.6502 8.59678 31.1675 9.21684 31.3134 10.1269C31.4849 11.1926 31.2291 12.1772 30.7561 13.1108C29.6991 15.1963 28.0191 16.6735 26.0334 17.8304C24.3799 18.7933 22.5961 19.4047 20.7083 19.7249C19.6651 19.9022 18.6179 20.009 17.5687 19.8493C16.3648 19.6661 15.252 19.2636 14.4282 18.2937C14.3331 18.1821 14.2127 18.1046 14.051 18.183C13.8855 18.2633 13.8982 18.4103 13.9139 18.5513C13.9256 18.6483 13.9521 18.7463 13.9864 18.8384C14.2068 19.4331 14.6192 19.8817 15.1021 20.2735C16.358 21.2952 17.846 21.595 19.4084 21.6254C20.9375 21.6558 22.4432 21.4618 23.9331 21.1053C27.2941 20.302 30.1095 18.6533 32.1647 15.8282C33.3931 14.1394 34.1709 12.2782 34.1023 10.1485C34.0582 8.79769 33.6036 7.60453 32.6192 6.63478C31.4485 5.48372 29.9959 4.90481 28.4373 4.55709C26.7014 4.17112 24.948 4.11628 23.1769 4.32787C21.636 4.512 20.1304 4.82747 18.6649 5.33194C16.4225 6.10481 14.2567 7.05403 12.1839 8.208C10.0602 9.38934 8.05883 10.7422 6.30345 12.4369C4.74983 13.9366 3.41464 15.5912 2.6623 17.6453C2.34101 18.525 2.10983 19.4292 2.32536 20.3804C2.60164 21.6049 3.20501 22.6648 3.99851 23.6209C5.19851 25.0688 6.67086 26.2089 8.18923 27.2982C9.40883 28.1739 10.6852 28.9714 11.8568 29.9127C12.1889 30.1792 12.1869 30.1792 11.7961 30.3839C11.3396 30.6219 10.8782 30.8512 10.4296 31.1048C8.62039 32.1277 6.87186 33.2365 5.44451 34.7775C4.74214 35.5367 4.26505 36.389 4.04276 37.3352C5.20451 39.0711 6.58676 40.6463 8.1492 42.0205C10.8147 41.8129 12.8552 40.4258 14.3628 38.1316C15.0906 37.0237 15.4315 35.7698 15.5599 34.4473C15.6725 33.2816 15.554 32.1531 15.2111 31.0403C15.1514 30.8443 14.929 30.6494 15.0162 30.477C15.0975 30.3183 15.3425 30.2379 15.5226 30.1342C16.2495 29.7119 16.9783 29.2957 17.7267 28.8656C17.759 29.0263 17.6963 29.1203 17.669 29.2222C17.2399 30.7964 16.9411 32.3833 17.2673 34.0193C17.4701 35.038 17.8081 35.997 18.4506 36.8405C19.1119 37.7084 20.5881 37.6094 21.1876 36.8169C21.7567 36.0646 22.1339 35.2162 22.5267 34.3718C22.7422 33.9095 22.94 33.4393 23.1458 32.972C23.1076 33.5343 23.1095 34.0828 23.1302 34.6295C23.1507 35.1683 23.237 35.7002 23.5171 36.1763C23.854 36.7483 24.4879 36.9149 25.0766 36.6092C25.6977 36.2869 26.1209 35.756 26.45 35.18C27.8615 32.7026 29.1712 30.1723 30.2556 27.5303C30.4868 26.9691 30.7239 26.4087 30.9855 25.7847C31.0256 25.9895 31.0521 26.1148 31.0766 26.2403C31.3175 27.499 31.7466 28.6902 32.3677 29.8099C32.501 30.0499 32.4862 30.2154 32.3178 30.4456C31.7457 31.2244 31.1187 31.9571 30.5006 32.6977C29.9814 33.3207 29.426 33.9163 28.9871 34.602C28.5934 35.2192 28.8196 35.8509 29.475 35.9911C29.6767 36.0342 29.8894 36.047 30.0961 36.044C31.2412 36.0303 32.2982 35.6884 33.2827 35.128C34.6081 34.3728 35.3938 33.2658 35.3575 31.6897C35.3408 30.9726 35.1469 30.284 34.8579 29.6266C34.7943 29.4806 34.7913 29.3749 34.8863 29.2377C35.8042 27.9231 36.6153 26.5448 37.3608 25.1264C37.493 24.8767 37.586 24.5993 37.7996 24.3555C37.828 24.4544 37.8505 24.5162 37.8633 24.5798C38.1004 25.7554 38.4197 26.9044 39.0192 27.9535C39.1837 28.2406 39.1015 28.3865 38.8743 28.5785C38.0915 29.2436 37.4314 30.0194 36.9131 30.908C36.5095 31.5996 36.2332 32.3381 36.2362 33.1483C36.2391 34.0495 36.9288 34.5804 37.8075 34.3688C38.7234 34.1494 39.5727 33.7762 40.3348 33.2188C41.9952 32.0032 42.482 30.7208 41.9619 28.9312C41.7582 28.2268 41.762 28.2386 42.4684 28.0251C44.0132 27.5588 45.5805 27.5392 47.1557 27.7958C47.334 27.8252 47.5103 27.8586 47.6846 27.8967C47.7767 27.3374 47.8491 26.7712 47.9001 26.1981C45.8851 25.7055 43.8729 25.9612 41.8844 26.7164ZM9.24242 39.3188C8.79476 39.4776 8.32948 39.5452 7.85333 39.5079C7.26064 39.4609 6.88451 39.0427 6.84626 38.4137C6.80314 37.6888 7.01773 37.0344 7.33508 36.3977C7.91201 35.2418 8.88083 34.4572 9.86933 33.6872C10.8303 32.9378 11.8628 32.2981 12.907 31.6761C13.2234 31.488 13.2283 31.49 13.3008 31.8671C13.3948 32.3511 13.4791 32.8359 13.4477 33.2758C13.5301 35.9137 11.614 38.4793 9.24242 39.3188ZM23.6209 26.0169C23.4544 27.1288 23.0909 28.1877 22.704 29.2339C22.1769 30.6622 21.6636 32.0972 21.0005 33.4706C20.8486 33.787 20.6889 34.1015 20.4431 34.3591C20.211 34.603 20.0052 34.5746 19.8446 34.2768C19.5311 33.6949 19.5703 33.0474 19.5194 32.5772C19.5341 30.2183 20.3256 28.2905 21.6294 26.5576C21.9938 26.0747 22.4591 25.6819 23.0753 25.5241C23.4935 25.4175 23.6865 25.586 23.6209 26.0169ZM32.7507 33.0005C32.304 33.7724 31.6604 34.3337 30.8708 34.7333C30.7865 34.7754 30.6779 34.8499 30.6015 34.751C30.529 34.6579 30.6455 34.5962 30.6984 34.5374C31.4831 33.6803 32.258 32.8162 32.9564 31.8866C32.9672 31.8719 32.9936 31.8699 33.0533 31.8445C33.0465 32.2747 32.9525 32.6528 32.7507 33.0005ZM38.1688 32.9672C38.0523 33.022 37.9171 33.1249 37.8035 33.0368C37.6781 32.9398 37.728 32.7683 37.7662 32.6371C37.9445 32.0386 38.1845 31.4655 38.5156 30.9316C38.7937 30.482 39.1386 30.0892 39.5177 29.7228C39.6705 29.5759 39.739 29.5935 39.791 29.8051C39.8449 30.0216 39.8497 30.238 39.8537 30.4584C39.8439 31.6643 39.2316 32.4667 38.1688 32.9672Z" fill="#CD6699"/>
</svg>
