<svg width="48" height="48" viewBox="0 0 48 48" fill="none" xmlns="http://www.w3.org/2000/svg">
<path d="M34.7474 34.7473V43.8463H24.5313V34.7473H34.7474Z" fill="#46CC8D"/>
<path d="M33.5926 34.7473V36.5573H25.0036V34.7473H33.5926Z" fill="#00C27A"/>
<path d="M30.9908 41.7653C32.1249 42.1086 33.3128 41.4209 33.58 40.2666L33.6045 46.1548C33.6045 47.1738 34.4305 47.9998 35.4495 47.9998C36.4685 47.9998 37.2945 47.1738 37.2945 46.1548L37.2933 45.4998C37.4231 46.3916 38.1889 47.0773 39.1167 47.0773C40.1357 47.0773 40.9617 46.2513 40.9617 45.2323L40.9582 43.6611C41.0636 44.5798 41.843 45.2936 42.79 45.2936C43.809 45.2936 44.635 44.4676 44.635 43.4486V41.4244C44.635 42.3535 45.3883 43.1068 46.3175 43.1068C47.2466 43.1068 47.9999 42.3535 47.9999 41.4244V33.4621C47.9999 32.5033 47.5843 31.5917 46.8606 30.9628L44.9858 29.3341C44.2621 28.7053 43.8464 27.7936 43.8464 26.8348V21.8438H34.7474V26.7951C34.7474 27.8992 34.1971 28.9305 33.2799 29.5452L31.7864 30.5462C30.9817 31.0855 30.4537 31.9502 30.3412 32.9123L29.5922 39.3265C29.339 40.3816 29.9524 41.4511 30.9908 41.7653Z" fill="#FED2A4"/>
<path d="M33.5804 40.2665C33.3132 41.4206 32.1254 42.1087 30.991 41.7655C30.6095 41.6502 30.286 41.4337 30.0413 41.1524C30.9488 41.1299 31.7691 40.5018 31.9857 39.5662L32.3615 35.2291C32.3991 34.7938 32.7635 34.4597 33.2003 34.4597C33.6965 34.4597 34.085 34.8865 34.0387 35.3804L33.5804 40.2665Z" fill="#FFBD86"/>
<path d="M48 33.4621V41.4243C48 41.4657 47.9985 41.5071 47.9955 41.5484C47.9634 41.9875 47.7548 42.4028 47.4234 42.6923C47.0531 43.0158 46.5002 43.1858 46.0144 43.079C45.8112 43.0344 45.6111 42.9718 45.435 42.8568C45.4322 42.8549 45.4294 42.854 45.4275 42.8521C45.4247 42.8512 45.4219 42.8493 45.42 42.8465C45.8897 42.5484 46.2037 42.0234 46.2037 41.4243V34.5168C46.2037 33.5587 45.7875 32.6465 45.0637 32.0184L43.1887 30.389C42.465 29.7599 42.0497 28.8496 42.0497 27.8896V21.8438H43.8469V26.835C43.8469 26.955 43.8534 27.0741 43.8656 27.1924C43.9263 27.7799 44.165 28.3827 44.5294 28.8478C44.6695 29.0268 44.8157 29.1854 44.9859 29.3334L46.8609 30.9628C47.5847 31.5919 48 32.5031 48 33.4621Z" fill="#FFBD86"/>
<path d="M34.7474 14.4074H43.8464V22.9964H34.7474V14.4074Z" fill="#FE4FB7"/>
<path d="M42.0364 14.4074H43.8464V22.9964H42.0364V14.4074Z" fill="#FE2AA8"/>
<path d="M37.2948 46.1549C37.2948 46.6649 37.0885 47.1262 36.7548 47.4599C36.4201 47.7937 35.9588 47.9999 35.4498 47.9999C35.1273 47.9999 34.8245 47.9174 34.561 47.7721C34.5498 47.7646 34.5385 47.7571 34.5273 47.7505C34.6679 47.6718 34.7945 47.5734 34.9088 47.4599C35.2426 47.1252 35.4488 46.664 35.4488 46.1549L35.4591 40.0677C35.4601 39.5615 35.8707 39.1518 36.376 39.1518H36.3882C36.8963 39.1518 37.307 39.5634 37.306 40.0705L37.2948 46.1549Z" fill="#FFBD86"/>
<path d="M40.9612 45.2324C40.9612 46.2477 40.1409 47.0718 39.1266 47.0774H39.1162C39.0956 47.0774 39.075 47.0774 39.0544 47.0765C39.0375 47.0755 39.0206 47.0746 39.0047 47.0737H38.9991C38.7112 47.053 38.4403 46.9658 38.2031 46.828C38.7534 46.5112 39.1247 45.9149 39.1247 45.2324L39.1341 40.0621C39.135 39.5558 39.5456 39.1471 40.0519 39.1471H40.0631C40.5712 39.1471 40.9819 39.5587 40.9809 40.0668L40.9612 45.2324Z" fill="#FFBD86"/>
<path d="M44.6391 40.064L44.6353 43.4483C44.6353 43.9574 44.4291 44.4187 44.0953 44.7533C43.7606 45.0871 43.2994 45.2933 42.7903 45.2933C42.4687 45.2933 42.1669 45.2118 41.9044 45.0665C41.9034 45.0665 41.9025 45.0665 41.9016 45.0655C41.9016 45.0646 41.9006 45.0646 41.9006 45.0646C41.8987 45.0637 41.8978 45.0637 41.8969 45.0618C41.8875 45.0562 41.8791 45.0505 41.8697 45.0449C42.4209 44.7262 42.7912 44.1308 42.7912 43.4493V40.064C42.7912 39.5577 43.2019 39.1471 43.7091 39.1471H43.7212C44.2284 39.1471 44.6391 39.5577 44.6391 40.064Z" fill="#FFBD86"/>
<path d="M41.7654 17.0092C42.1087 15.8752 41.421 14.6872 40.2667 14.4201L46.1549 14.3956C47.1739 14.3956 47.9999 13.5696 47.9999 12.5506C47.9999 11.5316 47.1739 10.7056 46.1549 10.7056L45.4999 10.7068C46.3917 10.577 47.0774 9.81122 47.0774 8.88337C47.0774 7.8644 46.2514 7.03837 45.2324 7.03837L43.6612 7.04193C44.5799 6.93646 45.2937 6.15712 45.2937 5.21006C45.2937 4.19109 44.4677 3.36506 43.4487 3.36506H41.4245C42.3536 3.36506 43.1069 2.61178 43.1069 1.68262C43.1069 0.753464 42.3536 0.000183105 41.4245 0.000183105H33.4622C32.5034 0.000183105 31.5918 0.415777 30.9629 1.13953L29.3342 3.01425C28.7054 3.738 27.7937 4.15368 26.8349 4.15368H22.0938V13.2527H26.7952C27.8993 13.2527 28.9306 13.803 29.5453 14.7202L30.5463 16.2137C31.0856 17.0183 31.9503 17.5464 32.9124 17.6588L39.3266 18.4079C40.3817 18.661 41.4511 18.0477 41.7654 17.0092Z" fill="#D88A55"/>
<path d="M48 12.5503C48 13.5694 47.1741 14.3953 46.155 14.3953L44.745 14.4009L40.2966 14.4075C39.8044 14.4084 39.4041 14.0091 39.4041 13.5159V13.5047C39.4041 13.0125 39.8025 12.6141 40.2937 12.6131L46.2075 12.6038C46.7025 12.6038 47.1506 12.4031 47.475 12.0788C47.5669 11.9869 47.7187 11.8566 47.8116 11.7366C47.9325 11.9822 48 12.2588 48 12.5503Z" fill="#C57A44"/>
<path d="M47.0775 8.88373C47.0775 9.71529 46.5253 10.4175 45.7678 10.6472C45.6272 10.6828 45.48 10.7015 45.3291 10.7015L40.3106 10.7109C39.8175 10.7119 39.4172 10.3125 39.4172 9.81935V9.8081C39.4172 9.31685 39.8156 8.91748 40.3069 8.91654L45.3291 8.90716C45.9844 8.90716 46.5581 8.5556 46.8684 8.02966C47.0025 8.28466 47.0775 8.57529 47.0775 8.88373Z" fill="#C57A44"/>
<path d="M45.2934 5.20965C45.2934 6.09559 44.67 6.83434 43.8375 7.01246C43.8356 7.0134 43.8328 7.0134 43.8309 7.01434C43.7259 7.03309 43.6172 7.04246 43.5075 7.04246H40.2628C39.7706 7.04246 39.3722 6.64403 39.3722 6.15184V6.13871C39.3722 5.64653 39.7706 5.24715 40.2628 5.24715H43.5506C44.2059 5.24715 44.7797 4.89465 45.0909 4.36871C45.2203 4.6209 45.2934 4.90684 45.2934 5.20965Z" fill="#C57A44"/>
<path d="M43.1072 1.6828C43.1072 2.57905 42.405 3.31218 41.5209 3.36186L40.2759 3.36468C39.7791 3.37218 39.3722 2.97093 39.3722 2.47405C39.3722 1.98093 39.7716 1.58249 40.2637 1.58249H41.5519C42.1069 1.58249 42.6028 1.3303 42.9309 0.9328C43.0434 1.15874 43.1072 1.41374 43.1072 1.6828Z" fill="#C57A44"/>
<path d="M39.3268 18.4077L32.9121 17.6593C31.9504 17.5463 31.0852 17.0181 30.5465 16.2133L29.5455 14.7204C28.9301 13.8027 27.8995 13.2523 26.7952 13.2523H22.0938V11.4427H27.9775C29.0819 11.4427 30.1135 11.9929 30.7279 12.9098L31.7288 14.4036C32.2686 15.2084 33.5351 15.7366 34.4969 15.8487L39.3268 16.598C40.2713 16.8238 41.2274 16.3558 41.6427 15.5099C41.8638 15.9587 41.9222 16.4899 41.7651 17.0096C41.4513 18.0478 40.3814 18.6613 39.3268 18.4077Z" fill="#C57A44"/>
<path d="M13.7387 13.2527V4.15369H22.9964V13.2527H13.7387Z" fill="#5F99D7"/>
<path d="M13.7388 13.2527V11.4427H22.9965V13.2527H13.7388Z" fill="#3C87D0"/>
<path d="M17.0092 6.23465C15.8751 5.89143 14.6872 6.57909 14.42 7.73343L14.3956 1.84518C14.3956 0.826214 13.5695 0.000183105 12.5506 0.000183105C11.5316 0.000183105 10.7056 0.826214 10.7056 1.84518L10.7068 2.50021C10.577 1.60837 9.8112 0.922683 8.88336 0.922683C7.86439 0.922683 7.03836 1.74871 7.03836 2.76768L7.04192 4.33893C6.93645 3.42018 6.15711 2.70637 5.21004 2.70637C4.19107 2.70637 3.36504 3.5324 3.36504 4.55137V6.57562C3.36504 5.64646 2.61176 4.89318 1.68261 4.89318C0.753449 4.89318 0.000167847 5.64646 0.000167847 6.57562V14.5379C0.000167847 15.4967 0.415762 16.4083 1.13951 17.0372L3.01423 18.6659C3.73798 19.2947 4.15367 20.2064 4.15367 21.1652V26.0313H13.2527V21.2049C13.2527 20.1008 13.803 19.0695 14.7201 18.4548L16.2137 17.4538C17.0183 16.9145 17.5464 16.0498 17.6588 15.0877L18.4079 8.67346C18.661 7.6184 18.0477 6.5489 17.0092 6.23465Z" fill="#FFCEBF"/>
<path d="M18.4076 8.67326L17.6592 15.0879C17.5463 16.0497 17.0181 16.9148 16.2132 17.4536L14.7203 18.4546C13.8026 19.0699 13.2523 20.1005 13.2523 21.2049V26.0313H11.4427V20.0226C11.4427 18.9183 11.9929 17.8866 12.9098 17.2723L14.4036 16.2713C15.2084 15.7316 15.7366 14.465 15.8486 13.5033L16.598 8.67335C16.8238 7.72882 16.3558 6.77276 15.5099 6.35745C15.9587 6.13639 16.4899 6.07798 17.0095 6.23501C18.0478 6.5487 18.6612 7.61867 18.4076 8.67326Z" fill="#FFB09E"/>
<path d="M13.2527 34.9843H4.15369V25.0037H13.2527V34.9843Z" fill="#FEC165"/>
<path d="M13.2527 34.9843H11.4427V25.0037H13.2527V34.9843Z" fill="#FEA613"/>
<path d="M6.23464 30.9907C5.89142 32.1248 6.57907 33.3127 7.73342 33.5799L1.84517 33.6044C0.826199 33.6044 0.000167847 34.4304 0.000167847 35.4494C0.000167847 36.4684 0.826199 37.2944 1.84517 37.2944L2.5002 37.2932C1.60836 37.423 0.922668 38.1888 0.922668 39.1166C0.922668 40.1356 1.7487 40.9616 2.76767 40.9616L4.33892 40.958C3.42017 41.0635 2.70636 41.8429 2.70636 42.7899C2.70636 43.8089 3.53239 44.6349 4.55136 44.6349H6.57561C5.64645 44.6349 4.89317 45.3882 4.89317 46.3174C4.89317 47.2465 5.64645 47.9998 6.57561 47.9998H14.5379C15.4967 47.9998 16.4083 47.5842 17.0372 46.8605L18.6659 44.9857C19.2947 44.262 20.2064 43.8463 21.1652 43.8463H25.0037V34.7473H21.205C20.1009 34.7473 19.0696 34.197 18.4549 33.2798L17.4539 31.7863C16.9145 30.9816 16.0499 30.4535 15.0877 30.3411L8.67354 29.5921C7.61839 29.339 6.54898 29.9523 6.23464 30.9907Z" fill="#F6A96C"/>
<path d="M8.67328 29.5923L15.0879 30.3407C16.0497 30.4536 16.9148 30.9819 17.4536 31.7867L18.4546 33.2796C19.07 34.1973 20.1006 34.7476 21.2049 34.7476H25.0038V36.5573H20.0226C18.9182 36.5573 17.8866 36.007 17.2722 35.0902L16.2712 33.5964C15.7315 32.7915 14.465 32.2633 13.5032 32.1513L8.67328 31.402C7.72875 31.1761 6.77268 31.6441 6.35737 32.49C6.13631 32.0412 6.0779 31.5101 6.23493 30.9904C6.54881 29.9522 7.61868 29.3387 8.67328 29.5923Z" fill="#EA9B58"/>
<path d="M8.84822 34.5246C8.84822 35.0306 8.43853 35.4411 7.93247 35.4421L1.84509 35.4518C1.33556 35.4518 0.874313 35.6584 0.540375 35.9922C0.426469 36.1061 0.328031 36.2334 0.248906 36.3734C0.09075 36.1013 0 35.7858 0 35.449C0 34.9395 0.206531 34.4783 0.540375 34.1443C0.874313 33.8104 1.33556 33.6038 1.84509 33.6038L7.929 33.5949C8.43638 33.5939 8.84822 34.005 8.84822 34.5124V34.5246Z" fill="#EA9B58"/>
<path d="M8.85309 38.18V38.192C8.85309 38.6979 8.44359 39.1083 7.93772 39.1095L2.76778 39.119C2.08547 39.119 1.48912 39.4896 1.17159 40.0405C1.01334 39.7684 0.922592 39.4528 0.922592 39.117C0.922592 38.098 1.74862 37.2719 2.76769 37.2719L7.9334 37.2625C8.44097 37.2613 8.85309 37.6724 8.85309 38.18Z" fill="#EA9B58"/>
<path d="M8.8531 41.8622V41.8753C8.8531 42.382 8.44228 42.7928 7.93556 42.7928H4.55109C3.86878 42.7928 3.27338 43.1634 2.95491 43.7144C2.78438 43.4192 2.69203 43.0731 2.70881 42.7042C2.75391 41.7118 3.60263 40.9447 4.59609 40.9447H7.93547C8.44228 40.9447 8.8531 41.3555 8.8531 41.8622Z" fill="#EA9B58"/>
<path d="M8.85693 45.5492C8.85693 46.056 8.44612 46.4668 7.9394 46.4668H6.6133C6.01208 46.4668 5.47846 46.7543 5.14265 47.2002C4.98533 46.9435 4.89365 46.6414 4.89365 46.3171C4.89365 45.3878 5.64637 44.6351 6.57571 44.6351L7.92656 44.6318C8.43824 44.6246 8.85693 45.0375 8.85693 45.5492Z" fill="#EA9B58"/>
<path d="M13.4773 8.84831C12.9712 8.84831 12.5608 8.43862 12.5598 7.93256L12.55 1.84519C12.55 1.33566 12.3435 0.874406 12.0096 0.540469C11.8957 0.426562 11.7683 0.328125 11.6284 0.249C11.9005 0.09075 12.2161 0 12.5528 0C13.0624 0 13.5236 0.206531 13.8576 0.540375C14.1915 0.874312 14.398 1.33556 14.398 1.84509L14.407 7.929C14.408 8.43637 13.9969 8.84822 13.4895 8.84822H13.4773V8.84831Z" fill="#FFB09E"/>
<path d="M9.82188 8.85323H9.80988C9.30401 8.85323 8.89357 8.44373 8.89235 7.93785L8.88288 2.76792C8.88288 2.0856 8.51229 1.48926 7.96132 1.17173C8.23348 1.01348 8.54904 0.922729 8.88485 0.922729C9.90391 0.922729 10.7299 1.74876 10.7299 2.76782L10.7394 7.93354C10.7406 8.4411 10.3294 8.85323 9.82188 8.85323Z" fill="#FFB09E"/>
<path d="M6.13959 8.8532H6.12655C5.61984 8.8532 5.20902 8.44239 5.20902 7.93567V4.5512C5.20902 3.86889 4.83843 3.27348 4.28746 2.95501C4.58259 2.78448 4.92871 2.69214 5.29762 2.70892C6.29005 2.75401 7.05712 3.60273 7.05712 4.5962V7.93558C7.05712 8.44239 6.6463 8.8532 6.13959 8.8532Z" fill="#FFB09E"/>
<path d="M2.45277 8.85702C1.94605 8.85702 1.53524 8.44621 1.53524 7.93949V6.6134C1.53524 6.01218 1.24771 5.47855 0.801834 5.14274C1.05852 4.98543 1.36058 4.89374 1.68486 4.89374C2.61421 4.89374 3.36693 5.64646 3.36693 6.5758L3.37021 7.92665C3.37733 8.43833 2.96455 8.85702 2.45277 8.85702Z" fill="#FFB09E"/>
</svg>
